<mxfile host="app.diagrams.net" modified="2020-10-26T15:55:28.473Z" agent="5.0 (X11)" etag="VKFKUQgrGD3xmKazHFMA" version="13.8.3" type="github">
  <diagram id="U4RRDcylGkdC7Ly2OUhQ" name="Page-1">
    <mxGraphModel dx="1646" dy="492" grid="1" gridSize="10" guides="1" tooltips="1" connect="1" arrows="1" fold="1" page="1" pageScale="1" pageWidth="850" pageHeight="1100" math="0" shadow="0">
      <root>
        <mxCell id="0" />
        <mxCell id="1" parent="0" />
        <mxCell id="EKdELdQXOBPCtrRxAm0l-20" style="edgeStyle=none;rounded=0;orthogonalLoop=1;jettySize=auto;html=1;endArrow=none;endFill=0;exitX=0.923;exitY=0.577;exitDx=0;exitDy=0;exitPerimeter=0;" parent="1" source="oMrklNMT-Pfuy0eT6J20-4" target="EKdELdQXOBPCtrRxAm0l-2" edge="1">
          <mxGeometry relative="1" as="geometry">
            <mxPoint x="120" y="285" as="sourcePoint" />
          </mxGeometry>
        </mxCell>
        <mxCell id="EKdELdQXOBPCtrRxAm0l-13" style="edgeStyle=none;rounded=0;orthogonalLoop=1;jettySize=auto;html=1;entryX=0;entryY=0.5;entryDx=0;entryDy=0;entryPerimeter=0;endArrow=none;endFill=0;" parent="1" source="EKdELdQXOBPCtrRxAm0l-40" target="EKdELdQXOBPCtrRxAm0l-3" edge="1">
          <mxGeometry relative="1" as="geometry" />
        </mxCell>
        <mxCell id="EKdELdQXOBPCtrRxAm0l-14" style="edgeStyle=none;rounded=0;orthogonalLoop=1;jettySize=auto;html=1;entryX=0;entryY=0.5;entryDx=0;entryDy=0;entryPerimeter=0;endArrow=none;endFill=0;" parent="1" source="EKdELdQXOBPCtrRxAm0l-2" target="EKdELdQXOBPCtrRxAm0l-4" edge="1">
          <mxGeometry relative="1" as="geometry" />
        </mxCell>
        <mxCell id="EKdELdQXOBPCtrRxAm0l-15" style="edgeStyle=none;rounded=0;orthogonalLoop=1;jettySize=auto;html=1;entryX=0;entryY=0.5;entryDx=0;entryDy=0;entryPerimeter=0;endArrow=none;endFill=0;" parent="1" source="EKdELdQXOBPCtrRxAm0l-2" target="EKdELdQXOBPCtrRxAm0l-5" edge="1">
          <mxGeometry relative="1" as="geometry" />
        </mxCell>
        <mxCell id="EKdELdQXOBPCtrRxAm0l-16" style="edgeStyle=none;rounded=0;orthogonalLoop=1;jettySize=auto;html=1;entryX=0;entryY=0.5;entryDx=0;entryDy=0;entryPerimeter=0;endArrow=none;endFill=0;" parent="1" source="EKdELdQXOBPCtrRxAm0l-2" target="EKdELdQXOBPCtrRxAm0l-6" edge="1">
          <mxGeometry relative="1" as="geometry" />
        </mxCell>
        <mxCell id="EKdELdQXOBPCtrRxAm0l-17" style="edgeStyle=none;rounded=0;orthogonalLoop=1;jettySize=auto;html=1;entryX=0;entryY=0.5;entryDx=0;entryDy=0;entryPerimeter=0;endArrow=none;endFill=0;" parent="1" source="EKdELdQXOBPCtrRxAm0l-2" target="EKdELdQXOBPCtrRxAm0l-7" edge="1">
          <mxGeometry relative="1" as="geometry" />
        </mxCell>
        <mxCell id="oMrklNMT-Pfuy0eT6J20-9" style="edgeStyle=none;rounded=0;orthogonalLoop=1;jettySize=auto;html=1;entryX=0.5;entryY=1;entryDx=0;entryDy=0;endArrow=none;endFill=0;" edge="1" parent="1" source="EKdELdQXOBPCtrRxAm0l-2" target="oMrklNMT-Pfuy0eT6J20-5">
          <mxGeometry relative="1" as="geometry" />
        </mxCell>
        <mxCell id="EKdELdQXOBPCtrRxAm0l-2" value="API Gateway" style="outlineConnect=0;dashed=0;verticalLabelPosition=bottom;verticalAlign=top;align=center;html=1;shape=mxgraph.aws3.api_gateway;fillColor=#D9A741;gradientColor=none;" parent="1" vertex="1">
          <mxGeometry x="260" y="255" width="56.5" height="60" as="geometry" />
        </mxCell>
        <mxCell id="EKdELdQXOBPCtrRxAm0l-3" value="Avail" style="html=1;strokeColor=none;fillColor=#0079D6;labelPosition=center;verticalLabelPosition=middle;verticalAlign=top;align=center;fontSize=12;outlineConnect=0;spacingTop=-6;fontColor=#FFFFFF;shape=mxgraph.sitemap.services;" parent="1" vertex="1">
          <mxGeometry x="520" y="10" width="120" height="70" as="geometry" />
        </mxCell>
        <mxCell id="EKdELdQXOBPCtrRxAm0l-4" value="QC" style="html=1;strokeColor=none;fillColor=#0079D6;labelPosition=center;verticalLabelPosition=middle;verticalAlign=top;align=center;fontSize=12;outlineConnect=0;spacingTop=-6;fontColor=#FFFFFF;shape=mxgraph.sitemap.services;" parent="1" vertex="1">
          <mxGeometry x="520" y="130" width="120" height="70" as="geometry" />
        </mxCell>
        <mxCell id="EKdELdQXOBPCtrRxAm0l-5" value="Ticketing" style="html=1;strokeColor=none;fillColor=#0079D6;labelPosition=center;verticalLabelPosition=middle;verticalAlign=top;align=center;fontSize=12;outlineConnect=0;spacingTop=-6;fontColor=#FFFFFF;shape=mxgraph.sitemap.services;" parent="1" vertex="1">
          <mxGeometry x="520" y="250" width="120" height="70" as="geometry" />
        </mxCell>
        <mxCell id="EKdELdQXOBPCtrRxAm0l-6" value="Battery Backup Time" style="html=1;strokeColor=none;fillColor=#0079D6;labelPosition=center;verticalLabelPosition=middle;verticalAlign=top;align=center;fontSize=12;outlineConnect=0;spacingTop=-6;fontColor=#FFFFFF;shape=mxgraph.sitemap.services;" parent="1" vertex="1">
          <mxGeometry x="520" y="370" width="120" height="70" as="geometry" />
        </mxCell>
        <mxCell id="EKdELdQXOBPCtrRxAm0l-7" value="Auth" style="html=1;strokeColor=none;fillColor=#0079D6;labelPosition=center;verticalLabelPosition=middle;verticalAlign=top;align=center;fontSize=12;outlineConnect=0;spacingTop=-6;fontColor=#FFFFFF;shape=mxgraph.sitemap.services;" parent="1" vertex="1">
          <mxGeometry x="520" y="490" width="120" height="70" as="geometry" />
        </mxCell>
        <mxCell id="EKdELdQXOBPCtrRxAm0l-29" style="edgeStyle=none;rounded=0;orthogonalLoop=1;jettySize=auto;html=1;entryX=1;entryY=0.5;entryDx=0;entryDy=0;entryPerimeter=0;endArrow=none;endFill=0;" parent="1" source="EKdELdQXOBPCtrRxAm0l-28" target="EKdELdQXOBPCtrRxAm0l-7" edge="1">
          <mxGeometry relative="1" as="geometry" />
        </mxCell>
        <mxCell id="EKdELdQXOBPCtrRxAm0l-30" style="edgeStyle=none;rounded=0;orthogonalLoop=1;jettySize=auto;html=1;entryX=1;entryY=0.5;entryDx=0;entryDy=0;entryPerimeter=0;endArrow=none;endFill=0;" parent="1" source="EKdELdQXOBPCtrRxAm0l-28" target="EKdELdQXOBPCtrRxAm0l-6" edge="1">
          <mxGeometry relative="1" as="geometry" />
        </mxCell>
        <mxCell id="EKdELdQXOBPCtrRxAm0l-31" style="edgeStyle=none;rounded=0;orthogonalLoop=1;jettySize=auto;html=1;entryX=1;entryY=0.5;entryDx=0;entryDy=0;entryPerimeter=0;endArrow=none;endFill=0;" parent="1" source="EKdELdQXOBPCtrRxAm0l-28" target="EKdELdQXOBPCtrRxAm0l-5" edge="1">
          <mxGeometry relative="1" as="geometry" />
        </mxCell>
        <mxCell id="EKdELdQXOBPCtrRxAm0l-32" style="edgeStyle=none;rounded=0;orthogonalLoop=1;jettySize=auto;html=1;entryX=1;entryY=0.5;entryDx=0;entryDy=0;entryPerimeter=0;endArrow=none;endFill=0;" parent="1" source="EKdELdQXOBPCtrRxAm0l-28" target="EKdELdQXOBPCtrRxAm0l-4" edge="1">
          <mxGeometry relative="1" as="geometry" />
        </mxCell>
        <mxCell id="EKdELdQXOBPCtrRxAm0l-33" style="edgeStyle=none;rounded=0;orthogonalLoop=1;jettySize=auto;html=1;entryX=1;entryY=0.5;entryDx=0;entryDy=0;entryPerimeter=0;endArrow=none;endFill=0;" parent="1" source="EKdELdQXOBPCtrRxAm0l-28" target="EKdELdQXOBPCtrRxAm0l-3" edge="1">
          <mxGeometry relative="1" as="geometry" />
        </mxCell>
        <mxCell id="EKdELdQXOBPCtrRxAm0l-28" value="Mongodb" style="dashed=0;outlineConnect=0;html=1;align=center;labelPosition=center;verticalLabelPosition=bottom;verticalAlign=top;shape=mxgraph.webicons.mongodb;gradientColor=#DFDEDE" parent="1" vertex="1">
          <mxGeometry x="748" y="233.8" width="102.4" height="102.4" as="geometry" />
        </mxCell>
        <mxCell id="oMrklNMT-Pfuy0eT6J20-4" value="" style="aspect=fixed;html=1;points=[];align=center;image;fontSize=12;image=img/lib/azure2/general/Browser.svg;" vertex="1" parent="1">
          <mxGeometry x="-160" y="255" width="65" height="52" as="geometry" />
        </mxCell>
        <mxCell id="oMrklNMT-Pfuy0eT6J20-5" value="" style="strokeColor=#dddddd;shadow=1;strokeWidth=1;rounded=1;absoluteArcSize=1;arcSize=2;" vertex="1" parent="1">
          <mxGeometry x="310" y="10" width="150" height="44" as="geometry" />
        </mxCell>
        <mxCell id="oMrklNMT-Pfuy0eT6J20-6" value="&lt;div&gt;Frontend Code&lt;/div&gt;&lt;div&gt;80 Production&lt;/div&gt;&lt;div&gt;81 Development&lt;br&gt;&lt;/div&gt;" style="dashed=0;connectable=0;html=1;fillColor=#757575;strokeColor=none;shape=mxgraph.gcp2.frontend_platform_services;part=1;labelPosition=right;verticalLabelPosition=middle;align=left;verticalAlign=middle;spacingLeft=5;fontSize=12;" vertex="1" parent="oMrklNMT-Pfuy0eT6J20-5">
          <mxGeometry y="0.5" width="32" height="32" relative="1" as="geometry">
            <mxPoint x="5" y="-16" as="offset" />
          </mxGeometry>
        </mxCell>
        <mxCell id="EKdELdQXOBPCtrRxAm0l-40" value="Cache node" style="outlineConnect=0;fontColor=#232F3E;gradientColor=none;strokeColor=#232F3E;fillColor=#ffffff;dashed=0;verticalLabelPosition=bottom;verticalAlign=top;align=center;html=1;fontSize=12;fontStyle=0;aspect=fixed;shape=mxgraph.aws4.resourceIcon;resIcon=mxgraph.aws4.cache_node;rotation=-45;" parent="1" vertex="1">
          <mxGeometry x="410" y="120" width="40" height="40" as="geometry" />
        </mxCell>
        <mxCell id="oMrklNMT-Pfuy0eT6J20-7" style="edgeStyle=none;rounded=0;orthogonalLoop=1;jettySize=auto;html=1;entryX=0;entryY=0.5;entryDx=0;entryDy=0;entryPerimeter=0;endArrow=none;endFill=0;" edge="1" parent="1" source="EKdELdQXOBPCtrRxAm0l-2" target="EKdELdQXOBPCtrRxAm0l-40">
          <mxGeometry relative="1" as="geometry">
            <mxPoint x="316.5" y="255.74433656957933" as="sourcePoint" />
            <mxPoint x="520" y="45" as="targetPoint" />
          </mxGeometry>
        </mxCell>
        <mxCell id="oMrklNMT-Pfuy0eT6J20-11" value="&lt;div&gt;Method : GET&lt;/div&gt;&lt;div&gt;&lt;span style=&quot;color: rgb(80 , 80 , 80) ; font-family: &amp;#34;opensans&amp;#34; , &amp;#34;helvetica&amp;#34; , &amp;#34;arial&amp;#34; , sans-serif ; font-size: 12px ; font-style: normal ; font-weight: 400 ; letter-spacing: normal ; text-align: left ; text-indent: 0px ; text-transform: none ; word-spacing: 0px ; background-color: rgb(255 , 255 , 255) ; display: inline ; float: none&quot;&gt;http://10.54.28.211/api/avail/class/25-10-2020/25-10-2020&lt;/span&gt;&lt;/div&gt;" style="text;html=1;strokeColor=none;fillColor=none;align=center;verticalAlign=middle;whiteSpace=wrap;rounded=0;" vertex="1" parent="1">
          <mxGeometry x="-30" y="255" width="220" as="geometry" />
        </mxCell>
        <mxCell id="oMrklNMT-Pfuy0eT6J20-16" value="&lt;span style=&quot;color: rgb(80 , 80 , 80) ; font-family: &amp;#34;opensans&amp;#34; , &amp;#34;helvetica&amp;#34; , &amp;#34;arial&amp;#34; , sans-serif ; font-size: 12px ; font-style: normal ; font-weight: 400 ; letter-spacing: normal ; text-align: left ; text-indent: 0px ; text-transform: none ; word-spacing: 0px ; background-color: rgb(255 , 255 , 255) ; display: inline ; float: none&quot;&gt;http://10.54.28.211&lt;/span&gt;" style="text;html=1;strokeColor=none;fillColor=none;align=center;verticalAlign=middle;whiteSpace=wrap;rounded=0;" vertex="1" parent="1">
          <mxGeometry x="-140" y="230" width="40" height="20" as="geometry" />
        </mxCell>
        <mxCell id="oMrklNMT-Pfuy0eT6J20-17" value="&lt;div&gt;&lt;font style=&quot;font-size: 14px&quot;&gt;&lt;span style=&quot;color: rgb(0 , 0 , 0) ; font-family: &amp;#34;times new roman&amp;#34; ; font-style: normal ; font-weight: 400 ; letter-spacing: normal ; text-indent: 0px ; text-transform: none ; word-spacing: 0px ; display: inline ; float: none&quot;&gt;Respond : JSON&lt;br&gt;&lt;/span&gt;&lt;/font&gt;&lt;/div&gt;&lt;div&gt;&lt;font style=&quot;font-size: 9px&quot;&gt;&lt;span style=&quot;color: rgb(0 , 0 , 0) ; font-family: &amp;#34;times new roman&amp;#34; ; font-style: normal ; font-weight: 400 ; letter-spacing: normal ; text-indent: 0px ; text-transform: none ; word-spacing: 0px ; display: inline ; float: none&quot;&gt;[{&quot;availability&quot;:99.87,&quot;class&quot;:&quot;Diamond&quot;,&quot;site_count&quot;:498,&quot;total_outage&quot;:55710.0},{&quot;availability&quot;:99.7,&quot;class&quot;:&quot;Platinum&quot;,&quot;site_count&quot;:9110,&quot;total_outage&quot;:2326635.0},{&quot;availability&quot;:99.55,&quot;class&quot;:&quot;Gold&quot;,&quot;site_count&quot;:22830,&quot;total_outage&quot;:8739492.0},{&quot;availability&quot;:99.27,&quot;class&quot;:&quot;Silver&quot;,&quot;site_count&quot;:15438,&quot;total_outage&quot;:9631789.0},{&quot;availability&quot;:98.79,&quot;class&quot;:&quot;Bronze&quot;,&quot;site_count&quot;:10067,&quot;total_outage&quot;:10514312.0}]&lt;/span&gt;&lt;/font&gt;&lt;/div&gt;" style="text;html=1;strokeColor=none;fillColor=none;align=center;verticalAlign=middle;whiteSpace=wrap;rounded=0;" vertex="1" parent="1">
          <mxGeometry x="-50" y="295" width="260" height="75" as="geometry" />
        </mxCell>
        <mxCell id="oMrklNMT-Pfuy0eT6J20-18" value="Text" style="text;html=1;strokeColor=none;fillColor=none;align=center;verticalAlign=middle;whiteSpace=wrap;rounded=0;" vertex="1" parent="1">
          <mxGeometry x="510" y="220" width="40" height="20" as="geometry" />
        </mxCell>
        <mxCell id="oMrklNMT-Pfuy0eT6J20-19" value="Query &amp;amp; Agregation" style="text;html=1;strokeColor=none;fillColor=none;align=center;verticalAlign=middle;whiteSpace=wrap;rounded=0;" vertex="1" parent="1">
          <mxGeometry x="730" y="140" width="40" height="20" as="geometry" />
        </mxCell>
      </root>
    </mxGraphModel>
  </diagram>
</mxfile>
